<svg width="28" height="24" viewBox="0 0 28 24" fill="none" xmlns="http://www.w3.org/2000/svg">
<path d="M19.625 23.7134H15.875C15.7092 23.7134 15.5503 23.6518 15.4331 23.5423C15.3158 23.4327 15.25 23.284 15.25 23.129V17.2851C15.25 17.1301 15.3158 16.9814 15.4331 16.8718C15.5503 16.7623 15.7092 16.7007 15.875 16.7007H19.625C19.7908 16.7007 19.9497 16.7623 20.0669 16.8718C20.1842 16.9814 20.25 17.1301 20.25 17.2851V23.129C20.25 23.284 20.1842 23.4327 20.0669 23.5423C19.9497 23.6518 19.7908 23.7134 19.625 23.7134Z" fill="#FFD764"/>
<path d="M25.25 0.337646C24.587 0.337646 23.9511 0.583926 23.4822 1.02231C23.0134 1.46069 22.75 2.05526 22.75 2.67522C22.7522 3.09131 22.8744 3.49913 23.1038 3.8557L19.0125 7.68115C18.632 7.46483 18.1953 7.35042 17.75 7.35042C17.3047 7.35042 16.868 7.46483 16.4875 7.68115L12.3963 3.8557C12.6256 3.49913 12.7478 3.09131 12.75 2.67522C12.75 2.05526 12.4866 1.46069 12.0178 1.02231C11.5489 0.583926 10.913 0.337646 10.25 0.337646C9.58696 0.337646 8.95107 0.583926 8.48223 1.02231C8.01339 1.46069 7.75 2.05526 7.75 2.67522C7.75219 3.09131 7.8744 3.49913 8.10375 3.8557L4.0125 7.68115C3.63116 7.4667 3.195 7.35243 2.75 7.35038C2.25555 7.35038 1.7722 7.48748 1.36107 7.74433C0.949952 8.00119 0.62952 8.36627 0.440301 8.79341C0.251082 9.22054 0.201574 9.69055 0.298037 10.144C0.3945 10.5974 0.632602 11.014 0.982233 11.3409C1.33186 11.6678 1.77732 11.8904 2.26227 11.9806C2.74723 12.0708 3.24989 12.0245 3.70671 11.8476C4.16352 11.6707 4.55397 11.3711 4.82867 10.9866C5.10338 10.6022 5.25 10.1503 5.25 9.68796C5.24782 9.27188 5.1256 8.86405 4.89625 8.50748L8.9875 4.68204C9.36798 4.89836 9.80471 5.01276 10.25 5.01276C10.6953 5.01276 11.132 4.89836 11.5125 4.68204L15.6038 8.50748C15.3744 8.86405 15.2522 9.27188 15.25 9.68796C15.25 10.3079 15.5134 10.9025 15.9822 11.3409C16.4511 11.7793 17.087 12.0255 17.75 12.0255C18.413 12.0255 19.0489 11.7793 19.5178 11.3409C19.9866 10.9025 20.25 10.3079 20.25 9.68796C20.2478 9.27188 20.1256 8.86405 19.8963 8.50748L23.9875 4.68204C24.3688 4.89649 24.805 5.01076 25.25 5.0128C25.913 5.0128 26.5489 4.76652 27.0178 4.32814C27.4866 3.88976 27.75 3.29519 27.75 2.67522C27.75 2.05526 27.4866 1.46069 27.0178 1.02231C26.5489 0.583926 25.913 0.337646 25.25 0.337646Z" fill="#4C4C4C"/>
<path d="M4.625 23.7134H0.875001C0.709241 23.7134 0.550269 23.6518 0.433059 23.5423C0.315849 23.4327 0.250001 23.284 0.250001 23.129V17.2851C0.250001 17.1301 0.315849 16.9814 0.433059 16.8718C0.550269 16.7623 0.709241 16.7007 0.875001 16.7007H4.625C4.79076 16.7007 4.94973 16.7623 5.06694 16.8718C5.18415 16.9814 5.25 17.1301 5.25 17.2851V23.129C5.25 23.284 5.18415 23.4327 5.06694 23.5423C4.94973 23.6518 4.79076 23.7134 4.625 23.7134Z" fill="#FFD764"/>
<path d="M12.125 23.7135H8.375C8.20924 23.7135 8.05027 23.6519 7.93306 23.5423C7.81585 23.4327 7.75 23.2841 7.75 23.1291V10.2724C7.75 10.1174 7.81585 9.96875 7.93306 9.85915C8.05027 9.74956 8.20924 9.68799 8.375 9.68799H12.125C12.2908 9.68799 12.4497 9.74956 12.5669 9.85915C12.6842 9.96875 12.75 10.1174 12.75 10.2724V23.1291C12.75 23.2841 12.6842 23.4327 12.5669 23.5423C12.4497 23.6519 12.2908 23.7135 12.125 23.7135Z" fill="#1FD6AA"/>
<path d="M27.125 23.7134H23.375C23.2092 23.7134 23.0503 23.6519 22.9331 23.5423C22.8158 23.4327 22.75 23.284 22.75 23.129V11.4411C22.75 11.2862 22.8158 11.1375 22.9331 11.0279C23.0503 10.9183 23.2092 10.8568 23.375 10.8568H27.125C27.2908 10.8568 27.4497 10.9183 27.5669 11.0279C27.6842 11.1375 27.75 11.2862 27.75 11.4411V23.129C27.75 23.284 27.6842 23.4327 27.5669 23.5423C27.4497 23.6519 27.2908 23.7134 27.125 23.7134Z" fill="#1FD6AA"/>
</svg>
