<svg width="27" height="28" viewBox="0 0 27 28" fill="none" xmlns="http://www.w3.org/2000/svg">
<path d="M13.7919 0.592654C7.36564 0.81823 2.37501 5.94805 2.37501 11.9609V12.7206L0.220639 16.7477C0.147149 16.8849 0.103305 17.0344 0.0916132 17.1876C0.0799213 17.3407 0.10061 17.4945 0.152498 17.6401C0.204385 17.7858 0.286455 17.9205 0.394019 18.0365C0.501582 18.1525 0.632533 18.2475 0.779389 18.3162L2.37501 19.0619V22.2071C2.37501 22.982 2.70425 23.7252 3.29031 24.2732C3.87636 24.8212 4.67121 25.129 5.50001 25.129H9.87501V27.4666H22.375V19.7696C24.1401 18.2227 25.3572 16.2083 25.8631 13.9963C26.3691 11.7844 26.1398 9.48067 25.2058 7.39406C24.2719 5.30744 22.6781 3.53767 20.638 2.32202C18.5979 1.10636 16.2091 0.502942 13.7919 0.592654Z" fill="#F7BF26"/>
<path d="M20.2094 10.8113L18.4906 10.6945C18.3869 10.3036 18.2216 9.92942 18 9.58412L19.125 8.36683C19.1767 8.31094 19.2038 8.23881 19.2009 8.16497C19.198 8.09112 19.1653 8.02105 19.1094 7.96885L18.2256 7.14252C18.1698 7.09038 18.095 7.0599 18.0162 7.05719C17.9374 7.05448 17.8604 7.07974 17.8006 7.12791L16.5 8.18157C16.1307 7.97379 15.7306 7.8184 15.3125 7.72049L15.1875 6.11282C15.1812 6.03944 15.1455 5.97099 15.0876 5.92115C15.0296 5.87132 14.9537 5.84376 14.875 5.844H13.625C13.5459 5.8438 13.4696 5.87168 13.4116 5.92201C13.3536 5.97234 13.3182 6.04136 13.3125 6.11515L13.1875 7.72282C12.7696 7.82 12.3694 7.9746 12 8.18157L10.6975 7.12966C10.6378 7.0815 10.5608 7.05623 10.4819 7.05894C10.4031 7.06165 10.3283 7.09213 10.2725 7.14427L9.38875 7.97061C9.33281 8.0228 9.3001 8.09288 9.2972 8.16672C9.2943 8.24056 9.32143 8.31269 9.37313 8.36858L10.5 9.58412C10.2776 9.92928 10.1114 10.3035 10.0069 10.6945L8.28813 10.8113C8.20954 10.8171 8.13618 10.8504 8.08275 10.9046C8.02932 10.9588 7.99976 11.0298 8 11.1035V12.2723C7.99981 12.3464 8.02971 12.4178 8.08367 12.472C8.13762 12.5263 8.21159 12.5593 8.29063 12.5645L10.0094 12.6814C10.1133 13.0722 10.2786 13.4464 10.5 13.7918L9.375 15.0096C9.32349 15.0655 9.29647 15.1375 9.29937 15.2112C9.30226 15.2849 9.33486 15.3549 9.39063 15.407L10.2744 16.2334C10.3302 16.2855 10.405 16.316 10.4838 16.3187C10.5626 16.3214 10.6396 16.2961 10.6994 16.248L12 15.1943C12.3692 15.4021 12.7694 15.5575 13.1875 15.6554L13.3125 17.2625C13.3186 17.336 13.3543 17.4046 13.4122 17.4545C13.4702 17.5045 13.5462 17.5321 13.625 17.5319H14.875C14.9542 17.5321 15.0306 17.5041 15.0886 17.4537C15.1466 17.4032 15.182 17.334 15.1875 17.2601L15.3125 15.6531C15.7304 15.5559 16.1306 15.4013 16.5 15.1943L17.8025 16.2462C17.8622 16.2944 17.9392 16.3196 18.0181 16.3169C18.0969 16.3142 18.1717 16.2837 18.2275 16.2316L19.1113 15.4053C19.167 15.3531 19.1996 15.2832 19.2025 15.2094C19.2054 15.1357 19.1784 15.0637 19.1269 15.0079L18 13.7918C18.2223 13.4465 18.3885 13.0723 18.4931 12.6814L20.2119 12.5645C20.2905 12.5588 20.3638 12.5255 20.4173 12.4713C20.4707 12.4171 20.5002 12.346 20.5 12.2723V11.1035C20.5002 11.0295 20.4703 10.9581 20.4163 10.9038C20.3624 10.8496 20.2884 10.8165 20.2094 10.8113ZM14.25 13.4411C13.8792 13.4411 13.5166 13.3383 13.2083 13.1457C12.9 12.953 12.6596 12.6792 12.5177 12.3589C12.3758 12.0385 12.3387 11.686 12.411 11.3459C12.4834 11.0058 12.662 10.6934 12.9242 10.4483C13.1864 10.2031 13.5205 10.0361 13.8842 9.96844C14.2479 9.9008 14.6249 9.93552 14.9675 10.0682C15.3101 10.2009 15.603 10.4256 15.809 10.7139C16.015 11.0022 16.125 11.3412 16.125 11.6879C16.125 12.1529 15.9275 12.5988 15.5758 12.9276C15.2242 13.2564 14.7473 13.4411 14.25 13.4411Z" fill="#A2703F"/>
</svg>
