<svg width="25" height="25" viewBox="0 0 25 25" fill="none" xmlns="http://www.w3.org/2000/svg">
<path d="M12.5 5.20825V12.4999H19.7917" stroke="#FFD058" stroke-width="2" stroke-miterlimit="10" stroke-linecap="square"/>
<path d="M8.25937 19.4365L2.3302 17.7844L3.08958 23.823" stroke="#FFD058" stroke-width="2" stroke-miterlimit="10" stroke-linecap="square"/>
<path d="M1.04166 12.4999C1.04295 9.69819 2.07073 6.994 3.93066 4.89865C5.7906 2.80331 8.35379 1.46203 11.1356 1.12842C13.9174 0.79481 16.7251 1.49198 19.0277 3.08813C21.3304 4.68428 22.9684 7.06877 23.6322 9.79077C24.2959 12.5128 23.9393 15.3836 22.6298 17.8606C21.3204 20.3375 19.1488 22.2488 16.5256 23.2331C13.9025 24.2175 11.0096 24.2066 8.39389 23.2026C5.77821 22.1986 3.62102 20.271 2.3302 17.7843" stroke="#FFD058" stroke-width="2" stroke-miterlimit="10"/>
</svg>
