<svg width="30" height="26" viewBox="0 0 30 26" fill="none" xmlns="http://www.w3.org/2000/svg">
<path d="M27.5 0.753174H2.5C2.00272 0.753174 1.52581 0.937884 1.17417 1.26667C0.822544 1.59546 0.625 2.04138 0.625 2.50636V3.67515H29.375V2.50636C29.375 2.04138 29.1775 1.59546 28.8258 1.26667C28.4742 0.937884 27.9973 0.753174 27.5 0.753174Z" fill="#E3E3E3"/>
<path d="M29.375 3.67517H0.625V10.6879H29.375V3.67517Z" fill="#3AACE9"/>
<path d="M10 10.6879V25.2977H27.5C27.9973 25.2977 28.4742 25.113 28.8258 24.7842C29.1775 24.4554 29.375 24.0095 29.375 23.5445V10.6879H10Z" fill="#E3E3E3"/>
<path d="M0.625 10.6879V23.5445C0.625 24.0095 0.822544 24.4554 1.17417 24.7842C1.52581 25.113 2.00272 25.2977 2.5 25.2977H10V10.6879H0.625Z" fill="#363636"/>
<path d="M5 8.93471C6.03553 8.93471 6.875 8.14979 6.875 7.18153C6.875 6.21327 6.03553 5.42834 5 5.42834C3.96447 5.42834 3.125 6.21327 3.125 7.18153C3.125 8.14979 3.96447 8.93471 5 8.93471Z" fill="white"/>
<path d="M26.25 7.76596H23.75C23.5842 7.76596 23.4253 7.70439 23.3081 7.59479C23.1908 7.4852 23.125 7.33655 23.125 7.18156C23.125 7.02657 23.1908 6.87793 23.3081 6.76833C23.4253 6.65874 23.5842 6.59717 23.75 6.59717H26.25C26.4158 6.59717 26.5747 6.65874 26.6919 6.76833C26.8092 6.87793 26.875 7.02657 26.875 7.18156C26.875 7.33655 26.8092 7.4852 26.6919 7.59479C26.5747 7.70439 26.4158 7.76596 26.25 7.76596Z" fill="white"/>
<path d="M20.625 7.76596H15C14.8342 7.76596 14.6753 7.70439 14.5581 7.59479C14.4408 7.4852 14.375 7.33655 14.375 7.18156C14.375 7.02657 14.4408 6.87793 14.5581 6.76833C14.6753 6.65874 14.8342 6.59717 15 6.59717H20.625C20.7908 6.59717 20.9497 6.65874 21.0669 6.76833C21.1842 6.87793 21.25 7.02657 21.25 7.18156C21.25 7.33655 21.1842 7.4852 21.0669 7.59479C20.9497 7.70439 20.7908 7.76596 20.625 7.76596Z" fill="white"/>
<path d="M18.0656 20.0382H13.1875C13.0057 20.0382 12.8313 19.9709 12.7025 19.851C12.5736 19.7311 12.5008 19.5683 12.5 19.3983V13.6683C12.5 13.5839 12.5178 13.5003 12.5523 13.4223C12.5869 13.3444 12.6375 13.2735 12.7014 13.2138C12.7652 13.1541 12.841 13.1068 12.9244 13.0744C13.0078 13.0421 13.0972 13.0255 13.1875 13.0255H18.0687C18.25 13.0271 18.4233 13.0955 18.5508 13.2158C18.6784 13.3362 18.75 13.4989 18.75 13.6683V19.4013C18.7484 19.5702 18.6756 19.7318 18.5476 19.851C18.4195 19.9702 18.2463 20.0375 18.0656 20.0382Z" fill="#AEAEAE"/>
<path d="M26.25 14.1943H21.25C21.0842 14.1943 20.9253 14.1327 20.8081 14.0231C20.6908 13.9135 20.625 13.7649 20.625 13.6099C20.625 13.4549 20.6908 13.3063 20.8081 13.1967C20.9253 13.0871 21.0842 13.0255 21.25 13.0255H26.25C26.4158 13.0255 26.5747 13.0871 26.6919 13.1967C26.8092 13.3063 26.875 13.4549 26.875 13.6099C26.875 13.7649 26.8092 13.9135 26.6919 14.0231C26.5747 14.1327 26.4158 14.1943 26.25 14.1943Z" fill="#AEAEAE"/>
<path d="M26.25 17.1162H21.25C21.0842 17.1162 20.9253 17.0546 20.8081 16.945C20.6908 16.8354 20.625 16.6868 20.625 16.5318C20.625 16.3768 20.6908 16.2281 20.8081 16.1186C20.9253 16.009 21.0842 15.9474 21.25 15.9474H26.25C26.4158 15.9474 26.5747 16.009 26.6919 16.1186C26.8092 16.2281 26.875 16.3768 26.875 16.5318C26.875 16.6868 26.8092 16.8354 26.6919 16.945C26.5747 17.0546 26.4158 17.1162 26.25 17.1162Z" fill="#AEAEAE"/>
<path d="M26.25 20.0382H21.25C21.0842 20.0382 20.9253 19.9766 20.8081 19.867C20.6908 19.7574 20.625 19.6088 20.625 19.4538C20.625 19.2988 20.6908 19.1501 20.8081 19.0405C20.9253 18.931 21.0842 18.8694 21.25 18.8694H26.25C26.4158 18.8694 26.5747 18.931 26.6919 19.0405C26.8092 19.1501 26.875 19.2988 26.875 19.4538C26.875 19.6088 26.8092 19.7574 26.6919 19.867C26.5747 19.9766 26.4158 20.0382 26.25 20.0382Z" fill="#AEAEAE"/>
<path d="M26.25 22.9602H13.125C12.9592 22.9602 12.8003 22.8986 12.6831 22.789C12.5658 22.6794 12.5 22.5308 12.5 22.3758C12.5 22.2208 12.5658 22.0721 12.6831 21.9625C12.8003 21.853 12.9592 21.7914 13.125 21.7914H26.25C26.4158 21.7914 26.5747 21.853 26.6919 21.9625C26.8092 22.0721 26.875 22.2208 26.875 22.3758C26.875 22.5308 26.8092 22.6794 26.6919 22.789C26.5747 22.8986 26.4158 22.9602 26.25 22.9602Z" fill="#AEAEAE"/>
</svg>
