<svg width="23" height="22" viewBox="0 0 23 22" fill="none" xmlns="http://www.w3.org/2000/svg">
<path d="M22.9989 2.55296C22.1375 2.99116 21.224 3.27894 20.2886 3.40679C21.2745 2.7287 22.0124 1.66153 22.3647 0.404138C21.4395 1.03737 20.4251 1.48115 19.3679 1.7212C18.6577 0.847371 17.7164 0.267842 16.6903 0.0727108C15.6642 -0.12242 14.6108 0.0777795 13.6938 0.642186C12.7768 1.20659 12.0477 2.10358 11.6197 3.19371C11.1918 4.28383 11.089 5.50602 11.3274 6.67025C9.45106 6.5621 7.61551 6.00137 5.93988 5.02446C4.26425 4.04755 2.78601 2.6763 1.60111 0.999736C1.18169 1.82819 0.961292 2.76996 0.96247 3.72859C0.96247 5.61011 1.79518 7.27234 3.06118 8.24554C2.31197 8.21841 1.57926 7.98573 0.924107 7.56689V7.63437C0.924333 8.88746 1.30139 10.1019 1.99134 11.0718C2.68129 12.0417 3.64168 12.7073 4.70967 12.9558C4.01418 13.1726 3.28493 13.2045 2.57712 13.0493C2.87824 14.1279 3.46513 15.0712 4.25562 15.7471C5.04612 16.423 6.00064 16.7978 6.98553 16.8188C6.00667 17.7029 4.88589 18.3564 3.68727 18.7421C2.48864 19.1277 1.23567 19.2378 0 19.0662C2.15704 20.6615 4.66803 21.5085 7.23263 21.5057C15.9129 21.5057 20.6598 13.2361 20.6598 6.06427C20.6598 5.8307 20.6542 5.59454 20.6452 5.36357C21.5691 4.5956 22.3666 3.64427 23 2.55426L22.9989 2.55296Z" fill="white"/>
</svg>
