<svg width="30" height="29" viewBox="0 0 30 29" fill="none" xmlns="http://www.w3.org/2000/svg">
<g clip-path="url(#clip0_10_115)">
<path d="M6.25003 7.55223C7.97592 7.55223 9.37503 5.94212 9.37503 3.95595C9.37503 1.96979 7.97592 0.35968 6.25003 0.35968C4.52414 0.35968 3.12503 1.96979 3.12503 3.95595C3.12503 5.94212 4.52414 7.55223 6.25003 7.55223Z" fill="#3D6C7B"/>
<path d="M14.1657 16.2653C12.6757 15.6604 11.77 14.3664 10.8113 12.9955C9.50003 11.1183 8.00816 8.99072 5.00003 8.99072C3.84017 8.99244 2.72823 9.52343 1.90808 10.4673C1.08793 11.4111 0.626519 12.6907 0.625031 14.0255V26.9721C0.625031 27.1629 0.690879 27.3458 0.808089 27.4807C0.925299 27.6156 1.08427 27.6913 1.25003 27.6913H8.75003C8.91579 27.6913 9.07476 27.6156 9.19197 27.4807C9.30918 27.3458 9.37503 27.1629 9.37503 26.9721V15.5194C10.3846 17.0794 11.7573 18.2786 13.3344 18.9783C13.6457 19.099 13.9858 19.0739 14.2811 18.9083C14.5764 18.7427 14.8032 18.45 14.9124 18.0935C15.0217 17.7369 15.0046 17.3452 14.8648 17.0031C14.7251 16.661 14.4739 16.3959 14.1657 16.2653Z" fill="#2A4B55"/>
<path d="M15.8344 16.2653C17.3244 15.6604 18.23 14.3664 19.1888 12.9955C20.5031 11.1183 21.9919 8.99072 25 8.99072C26.1599 8.99244 27.2718 9.52343 28.092 10.4673C28.9121 11.4111 29.3735 12.6907 29.375 14.0255V26.9721C29.375 27.1629 29.3092 27.3458 29.192 27.4807C29.0748 27.6156 28.9158 27.6913 28.75 27.6913H21.25C21.0843 27.6913 20.9253 27.6156 20.8081 27.4807C20.6909 27.3458 20.625 27.1629 20.625 26.9721V15.5194C19.6154 17.0794 18.2427 18.2786 16.6656 18.9783C16.3557 19.1049 16.0148 19.0858 15.717 18.9252C15.4192 18.7645 15.1884 18.4752 15.0746 18.12C14.9609 17.7649 14.9734 17.3724 15.1094 17.0278C15.2454 16.6831 15.494 16.4141 15.8013 16.2789L15.8344 16.2653Z" fill="#7ED3DD"/>
<path d="M23.75 7.55223C25.4759 7.55223 26.875 5.94212 26.875 3.95595C26.875 1.96979 25.4759 0.35968 23.75 0.35968C22.0241 0.35968 20.625 1.96979 20.625 3.95595C20.625 5.94212 22.0241 7.55223 23.75 7.55223Z" fill="#A0E6EE"/>
</g>
<defs>
<clipPath id="clip0_10_115">
<rect width="30" height="28.0509" fill="white"/>
</clipPath>
</defs>
</svg>
