<svg aria-hidden="true" style="position: absolute; width: 0; height: 0; overflow: hidden;" version="1.1" xmlns="http://www.w3.org/2000/svg" xmlns:xlink="http://www.w3.org/1999/xlink">
<defs>
<symbol id="icon-arrow" viewBox="0 0 33 32">
<path d="M16.593 0.593l-2.924 2.716 11.573 10.766h-25.241v3.852h25.241l-11.573 10.766 2.924 2.716 16.593-15.407-16.593-15.407z"></path>
</symbol>
<symbol id="icon-Crypto" viewBox="0 0 37 32">
<path fill="#ffd764" style="fill: var(--color1, #ffd764)" d="M26.167 31.618h-5c-0.221 0-0.433-0.082-0.589-0.228s-0.244-0.344-0.244-0.551v-7.792c0-0.207 0.088-0.405 0.244-0.551s0.368-0.228 0.589-0.228h5c0.221 0 0.433 0.082 0.589 0.228s0.244 0.344 0.244 0.551v7.792c0 0.207-0.088 0.405-0.244 0.551s-0.368 0.228-0.589 0.228z"></path>
<path fill="#4c4c4c" style="fill: var(--color2, #4c4c4c)" d="M33.667 0.45c-0.884 0-1.732 0.328-2.357 0.913s-0.976 1.377-0.976 2.204c0.003 0.555 0.166 1.099 0.472 1.574l-5.455 5.101c-0.507-0.288-1.090-0.441-1.683-0.441s-1.176 0.153-1.683 0.441l-5.455-5.101c0.306-0.475 0.469-1.019 0.472-1.574 0-0.827-0.351-1.619-0.976-2.204s-1.473-0.913-2.357-0.913c-0.884 0-1.732 0.328-2.357 0.913s-0.976 1.377-0.976 2.204c0.003 0.555 0.166 1.099 0.472 1.574l-5.455 5.101c-0.508-0.286-1.090-0.438-1.683-0.441-0.659 0-1.304 0.183-1.852 0.525s-0.975 0.829-1.228 1.399c-0.252 0.569-0.318 1.196-0.19 1.801s0.446 1.16 0.912 1.596 1.060 0.733 1.707 0.853c0.647 0.12 1.317 0.059 1.926-0.177s1.13-0.635 1.496-1.148c0.366-0.513 0.562-1.115 0.562-1.732-0.003-0.555-0.166-1.099-0.472-1.574l5.455-5.101c0.507 0.288 1.090 0.441 1.683 0.441s1.176-0.153 1.683-0.441l5.455 5.101c-0.306 0.475-0.469 1.019-0.472 1.574 0 0.827 0.351 1.619 0.976 2.204s1.473 0.913 2.357 0.913 1.732-0.328 2.357-0.913c0.625-0.585 0.976-1.377 0.976-2.204-0.003-0.555-0.166-1.099-0.472-1.574l5.455-5.101c0.508 0.286 1.090 0.438 1.683 0.441 0.884 0 1.732-0.328 2.357-0.913s0.976-1.377 0.976-2.204-0.351-1.619-0.976-2.204c-0.625-0.585-1.473-0.913-2.357-0.913z"></path>
<path fill="#ffd764" style="fill: var(--color1, #ffd764)" d="M6.167 31.618h-5c-0.221 0-0.433-0.082-0.589-0.228s-0.244-0.344-0.244-0.551v-7.792c0-0.207 0.088-0.405 0.244-0.551s0.368-0.228 0.589-0.228h5c0.221 0 0.433 0.082 0.589 0.228s0.244 0.344 0.244 0.551v7.792c0 0.207-0.088 0.405-0.244 0.551s-0.368 0.228-0.589 0.228z"></path>
<path fill="#1fd6aa" style="fill: var(--color3, #1fd6aa)" d="M16.167 31.618h-5c-0.221 0-0.433-0.082-0.589-0.228s-0.244-0.344-0.244-0.551v-17.142c0-0.207 0.088-0.405 0.244-0.551s0.368-0.228 0.589-0.228h5c0.221 0 0.433 0.082 0.589 0.228s0.244 0.344 0.244 0.551v17.142c0 0.207-0.088 0.405-0.244 0.551s-0.368 0.228-0.589 0.228z"></path>
<path fill="#1fd6aa" style="fill: var(--color3, #1fd6aa)" d="M36.167 31.618h-5c-0.221 0-0.433-0.082-0.589-0.228s-0.244-0.344-0.244-0.551v-15.584c0-0.207 0.088-0.405 0.244-0.551s0.368-0.228 0.589-0.228h5c0.221 0 0.433 0.082 0.589 0.228s0.244 0.344 0.244 0.551v15.584c0 0.207-0.088 0.405-0.244 0.551s-0.368 0.228-0.589 0.228z"></path>
</symbol>
<symbol id="icon-facebook">
<path fill="#fff" d="M33.455 15.68c0-8.655-7.494-15.68-16.727-15.68s-16.727 7.024-16.727 15.68c0 7.589 5.754 13.908 13.382 15.366v-10.662h-3.345v-4.704h3.345v-3.92c0-3.026 2.626-5.488 5.855-5.488h4.182v4.704h-3.345c-0.92 0-1.673 0.706-1.673 1.568v3.136h5.018v4.704h-5.018v10.897c8.447-0.784 15.055-7.464 15.055-15.601z"></path>
</symbol>
<symbol id="icon-Finances" viewBox="0 0 31 32">
<path fill="#f7bf26" style="fill: var(--color5, #f7bf26)" d="M15.762 0.677c-7.344 0.258-13.048 6.12-13.048 12.992v0.868l-2.462 4.602c-0.084 0.157-0.134 0.328-0.147 0.503s0.010 0.351 0.070 0.517c0.059 0.166 0.153 0.32 0.276 0.453s0.273 0.241 0.44 0.32l1.824 0.852v3.595c0 0.886 0.376 1.735 1.046 2.361s1.578 0.978 2.525 0.978h5v2.672h14.286v-8.797c2.017-1.768 3.408-4.070 3.986-6.598s0.316-5.161-0.751-7.545c-1.067-2.385-2.889-4.407-5.22-5.797s-5.062-2.079-7.824-1.976z"></path>
<path fill="#a2703f" style="fill: var(--color6, #a2703f)" d="M23.096 12.356l-1.964-0.133c-0.119-0.447-0.307-0.874-0.561-1.269l1.286-1.391c0.059-0.064 0.090-0.146 0.087-0.231s-0.041-0.164-0.105-0.224l-1.010-0.944c-0.064-0.060-0.149-0.094-0.239-0.098s-0.178 0.026-0.246 0.081l-1.486 1.204c-0.422-0.237-0.879-0.415-1.357-0.527l-0.143-1.837c-0.007-0.084-0.048-0.162-0.114-0.219s-0.153-0.088-0.243-0.088h-1.429c-0.090-0-0.178 0.032-0.244 0.089s-0.107 0.136-0.113 0.221l-0.143 1.837c-0.478 0.111-0.935 0.288-1.357 0.524l-1.489-1.202c-0.068-0.055-0.156-0.084-0.246-0.081s-0.176 0.038-0.239 0.098l-1.010 0.944c-0.064 0.060-0.101 0.14-0.105 0.224s0.028 0.167 0.087 0.231l1.288 1.389c-0.254 0.394-0.444 0.822-0.564 1.269l-1.964 0.133c-0.090 0.007-0.174 0.045-0.235 0.107s-0.095 0.143-0.095 0.227v1.336c-0 0.085 0.034 0.166 0.096 0.228s0.146 0.1 0.237 0.106l1.964 0.134c0.119 0.447 0.308 0.874 0.561 1.269l-1.286 1.392c-0.059 0.064-0.090 0.146-0.086 0.23s0.041 0.164 0.104 0.224l1.010 0.944c0.064 0.060 0.149 0.094 0.239 0.098s0.178-0.026 0.246-0.081l1.486-1.204c0.422 0.238 0.879 0.415 1.357 0.527l0.143 1.837c0.007 0.084 0.048 0.162 0.114 0.219s0.153 0.089 0.243 0.088h1.429c0.090 0 0.178-0.032 0.244-0.089s0.107-0.137 0.113-0.221l0.143-1.837c0.478-0.111 0.935-0.288 1.357-0.524l1.489 1.202c0.068 0.055 0.156 0.084 0.246 0.081s0.176-0.038 0.239-0.098l1.010-0.944c0.064-0.060 0.101-0.14 0.104-0.224s-0.028-0.166-0.086-0.23l-1.288-1.39c0.254-0.395 0.444-0.822 0.564-1.269l1.964-0.134c0.090-0.007 0.174-0.045 0.235-0.107s0.095-0.143 0.095-0.227v-1.336c0-0.085-0.034-0.166-0.096-0.228s-0.146-0.1-0.236-0.106zM16.286 15.361c-0.424 0-0.838-0.117-1.191-0.338s-0.627-0.533-0.789-0.899c-0.162-0.366-0.205-0.769-0.122-1.158s0.287-0.746 0.586-1.026c0.3-0.28 0.681-0.471 1.097-0.548s0.847-0.038 1.238 0.114c0.392 0.152 0.726 0.408 0.962 0.738s0.361 0.717 0.361 1.113c0 0.531-0.226 1.041-0.628 1.417s-0.947 0.587-1.515 0.587z"></path>
</symbol>
<symbol id="icon-FullTime" viewBox="0 0 32 32">
<path fill="none" stroke="#ffd058" style="stroke: var(--color7, #ffd058)" stroke-linejoin="miter" stroke-linecap="square" stroke-miterlimit="10" stroke-width="2.56" d="M16 6.667v9.333h9.333"></path>
<path fill="none" stroke="#ffd058" style="stroke: var(--color7, #ffd058)" stroke-linejoin="miter" stroke-linecap="square" stroke-miterlimit="10" stroke-width="2.56" d="M10.572 24.879l-7.589-2.115 0.972 7.729"></path>
<path fill="none" stroke="#ffd058" style="stroke: var(--color7, #ffd058)" stroke-linejoin="miter" stroke-linecap="butt" stroke-miterlimit="10" stroke-width="2.56" d="M1.333 16c0.002-3.586 1.317-7.048 3.698-9.73s5.662-4.399 9.222-4.826c3.561-0.427 7.155 0.465 10.102 2.508s5.044 5.095 5.894 8.579c0.85 3.484 0.393 7.159-1.283 10.329s-4.456 5.617-7.813 6.877c-3.358 1.26-7.060 1.246-10.409-0.039s-6.109-3.752-7.762-6.935"></path>
</symbol>
<symbol id="icon-Increased" viewBox="0 0 34 32">
<path fill="#78d478" style="fill: var(--color8, #78d478)" d="M8.34 28.881l-7.651-9.321 2.159-2.579 5.757 4.299 16.552-20.635 2.159 1.72-16.804 26.355c-0.231 0.362-0.573 0.6-0.951 0.661s-0.76-0.059-1.064-0.335c-0.056-0.050-0.108-0.105-0.158-0.164z"></path>
<path fill="#aeaeae" style="fill: var(--color9, #aeaeae)" d="M33.073 8.383h-3.598c-0.191 0-0.374-0.091-0.509-0.252s-0.211-0.38-0.211-0.608c0-0.228 0.076-0.447 0.211-0.608s0.318-0.252 0.509-0.252h3.598c0.191 0 0.374 0.091 0.509 0.252s0.211 0.38 0.211 0.608c0 0.228-0.076 0.447-0.211 0.608s-0.318 0.252-0.509 0.252z"></path>
<path fill="#aeaeae" style="fill: var(--color9, #aeaeae)" d="M33.073 16.121h-8.636c-0.191 0-0.374-0.091-0.509-0.252s-0.211-0.38-0.211-0.608c0-0.228 0.076-0.447 0.211-0.608s0.318-0.252 0.509-0.252h8.636c0.191 0 0.374 0.091 0.509 0.252s0.211 0.38 0.211 0.608c0 0.228-0.076 0.447-0.211 0.608s-0.318 0.252-0.509 0.252z"></path>
<path fill="#aeaeae" style="fill: var(--color9, #aeaeae)" d="M33.073 23.859h-13.673c-0.191 0-0.374-0.091-0.509-0.252s-0.211-0.38-0.211-0.608c0-0.228 0.076-0.447 0.211-0.608s0.318-0.252 0.509-0.252h13.673c0.191 0 0.374 0.091 0.509 0.252s0.211 0.38 0.211 0.608c0 0.228-0.076 0.447-0.211 0.608s-0.318 0.252-0.509 0.252z"></path>
<path fill="#aeaeae" style="fill: var(--color9, #aeaeae)" d="M33.073 31.598h-18.711c-0.191 0-0.374-0.091-0.509-0.252s-0.211-0.38-0.211-0.608 0.076-0.447 0.211-0.608c0.135-0.161 0.318-0.252 0.509-0.252h18.711c0.191 0 0.374 0.091 0.509 0.252s0.211 0.38 0.211 0.608-0.076 0.447-0.211 0.608c-0.135 0.161-0.318 0.252-0.509 0.252z"></path>
</symbol>
<symbol id="icon-linkedIn" viewBox="0 0 32 32">
<path fill="#fff" style="fill: var(--color4, #fff)" d="M24.447 24.452h-3.553v-5.569c0-1.328-0.027-3.037-1.853-3.037-1.852 0-2.135 1.445-2.135 2.94v5.667h-3.555v-11.452h3.413v1.56h0.047c0.477-0.899 1.637-1.849 3.371-1.849 3.6 0 4.267 2.371 4.267 5.455v6.287h-0.001zM9.337 11.433c-0.271 0-0.54-0.053-0.791-0.157s-0.478-0.256-0.67-0.448c-0.192-0.192-0.344-0.42-0.447-0.67s-0.157-0.519-0.156-0.791c0-0.408 0.122-0.807 0.349-1.146s0.55-0.604 0.927-0.76c0.377-0.156 0.792-0.197 1.193-0.117s0.768 0.277 1.056 0.566c0.288 0.289 0.485 0.657 0.564 1.057s0.038 0.815-0.118 1.192c-0.156 0.377-0.421 0.699-0.761 0.926s-0.739 0.347-1.147 0.347h0.001zM11.119 24.452h-3.564v-11.452h3.565v11.452h-0.001zM26.227 4h-20.455c-0.981 0-1.772 0.773-1.772 1.729v20.541c0 0.956 0.792 1.729 1.771 1.729h20.451c0.979 0 1.779-0.773 1.779-1.729v-20.541c0-0.956-0.8-1.729-1.779-1.729h0.005z"></path>
</symbol>
<symbol id="icon-location" viewBox="0 0 23 32">
<path fill="#1a6ae2" style="fill: var(--color10, #1a6ae2)" d="M11.429 0.127c-6.143 0-11.111 4.968-11.111 11.111 0 8.333 11.111 20.635 11.111 20.635s11.111-12.302 11.111-20.635c0-6.143-4.968-11.111-11.111-11.111zM3.492 11.238c0-4.381 3.556-7.936 7.936-7.936s7.936 3.556 7.936 7.936c0 4.571-4.571 11.413-7.936 15.683-3.302-4.238-7.936-11.159-7.936-15.683z"></path>
<path fill="#1a6ae2" style="fill: var(--color10, #1a6ae2)" d="M11.429 15.206c1.052 0 2.062-0.418 2.806-1.162s1.162-1.754 1.162-2.806c0-1.052-0.418-2.062-1.162-2.806s-1.754-1.162-2.806-1.162c-1.052 0-2.062 0.418-2.806 1.162s-1.162 1.754-1.162 2.806c0 1.052 0.418 2.062 1.162 2.806s1.754 1.162 2.806 1.162z"></path>
</symbol>
<symbol id="icon-Money" viewBox="0 0 37 32">
<path fill="#e3e3e3" style="fill: var(--color11, #e3e3e3)" d="M33.846 0.927h-30.769c-0.612 0-1.199 0.227-1.632 0.632s-0.676 0.954-0.676 1.526v1.438h35.385v-1.438c0-0.572-0.243-1.121-0.676-1.526s-1.020-0.632-1.632-0.632z"></path>
<path fill="#3aace9" style="fill: var(--color12, #3aace9)" d="M36.154 4.523h-35.385v8.631h35.385v-8.631z"></path>
<path fill="#e3e3e3" style="fill: var(--color11, #e3e3e3)" d="M12.308 13.154v17.981h21.538c0.612 0 1.199-0.227 1.632-0.632s0.676-0.953 0.676-1.526v-15.823h-23.846z"></path>
<path fill="#363636" style="fill: var(--color13, #363636)" d="M0.769 13.154v15.823c0 0.572 0.243 1.121 0.676 1.526s1.020 0.632 1.632 0.632h9.231v-17.981h-11.538z"></path>
<path fill="#fff" style="fill: var(--color4, #fff)" d="M6.154 10.997c1.274 0 2.308-0.966 2.308-2.158s-1.033-2.158-2.308-2.158c-1.274 0-2.308 0.966-2.308 2.158s1.033 2.158 2.308 2.158z"></path>
<path fill="#fff" style="fill: var(--color4, #fff)" d="M32.308 9.558h-3.077c-0.204 0-0.4-0.076-0.544-0.211s-0.225-0.318-0.225-0.509 0.081-0.374 0.225-0.509c0.144-0.135 0.34-0.211 0.544-0.211h3.077c0.204 0 0.4 0.076 0.544 0.211s0.225 0.318 0.225 0.509-0.081 0.374-0.225 0.509c-0.144 0.135-0.34 0.211-0.544 0.211z"></path>
<path fill="#fff" style="fill: var(--color4, #fff)" d="M25.385 9.558h-6.923c-0.204 0-0.4-0.076-0.544-0.211s-0.225-0.318-0.225-0.509 0.081-0.374 0.225-0.509c0.144-0.135 0.34-0.211 0.544-0.211h6.923c0.204 0 0.4 0.076 0.544 0.211s0.225 0.318 0.225 0.509-0.081 0.374-0.225 0.509c-0.144 0.135-0.34 0.211-0.544 0.211z"></path>
<path fill="#aeaeae" style="fill: var(--color9, #aeaeae)" d="M22.235 24.662h-6.004c-0.224 0-0.438-0.083-0.597-0.23s-0.248-0.348-0.249-0.557v-7.052c0-0.104 0.022-0.207 0.064-0.303s0.105-0.183 0.184-0.257c0.079-0.073 0.172-0.132 0.274-0.172s0.213-0.060 0.324-0.060h6.008c0.223 0.002 0.436 0.086 0.593 0.234s0.245 0.348 0.245 0.557v7.056c-0.002 0.208-0.092 0.407-0.249 0.553s-0.371 0.23-0.593 0.23z"></path>
<path fill="#aeaeae" style="fill: var(--color9, #aeaeae)" d="M32.308 17.47h-6.154c-0.204 0-0.4-0.076-0.544-0.211s-0.225-0.318-0.225-0.509 0.081-0.374 0.225-0.509c0.144-0.135 0.34-0.211 0.544-0.211h6.154c0.204 0 0.4 0.076 0.544 0.211s0.225 0.318 0.225 0.509-0.081 0.374-0.225 0.509c-0.144 0.135-0.34 0.211-0.544 0.211z"></path>
<path fill="#aeaeae" style="fill: var(--color9, #aeaeae)" d="M32.308 21.066h-6.154c-0.204 0-0.4-0.076-0.544-0.211s-0.225-0.318-0.225-0.509 0.081-0.374 0.225-0.509c0.144-0.135 0.34-0.211 0.544-0.211h6.154c0.204 0 0.4 0.076 0.544 0.211s0.225 0.318 0.225 0.509-0.081 0.374-0.225 0.509c-0.144 0.135-0.34 0.211-0.544 0.211z"></path>
<path fill="#aeaeae" style="fill: var(--color9, #aeaeae)" d="M32.308 24.662h-6.154c-0.204 0-0.4-0.076-0.544-0.211s-0.225-0.318-0.225-0.509 0.081-0.374 0.225-0.509c0.144-0.135 0.34-0.211 0.544-0.211h6.154c0.204 0 0.4 0.076 0.544 0.211s0.225 0.318 0.225 0.509-0.081 0.374-0.225 0.509c-0.144 0.135-0.34 0.211-0.544 0.211z"></path>
<path fill="#aeaeae" style="fill: var(--color9, #aeaeae)" d="M32.308 28.259h-16.154c-0.204 0-0.4-0.076-0.544-0.211s-0.225-0.318-0.225-0.509 0.081-0.374 0.225-0.509c0.144-0.135 0.34-0.211 0.544-0.211h16.154c0.204 0 0.4 0.076 0.544 0.211s0.225 0.318 0.225 0.509-0.081 0.374-0.225 0.509c-0.144 0.135-0.34 0.211-0.544 0.211z"></path>
</symbol>
<symbol id="icon-Multiple" viewBox="0 0 33 32">
<path fill="#2a4b55" style="fill: var(--color14, #2a4b55)" d="M32.725 21.195l-15.799-8.441c-0.114-0.061-0.242-0.093-0.373-0.093s-0.259 0.032-0.373 0.093l-15.799 8.441c-0.086 0.046-0.162 0.107-0.223 0.181s-0.105 0.157-0.131 0.247-0.033 0.183-0.020 0.275c0.013 0.092 0.045 0.181 0.095 0.261 0.066 0.109 0.163 0.199 0.279 0.261l15.799 8.441c0.114 0.061 0.242 0.093 0.373 0.093s0.26-0.032 0.373-0.093l15.799-8.441c0.115-0.061 0.211-0.15 0.277-0.258s0.102-0.229 0.102-0.353-0.035-0.246-0.102-0.353c-0.067-0.107-0.162-0.196-0.277-0.258v-0.003z"></path>
<path fill="#4d8b9d" style="fill: var(--color15, #4d8b9d)" d="M32.725 14.865l-15.799-8.441c-0.114-0.061-0.242-0.093-0.373-0.093s-0.26 0.032-0.373 0.093l-15.799 8.441c-0.115 0.062-0.211 0.15-0.277 0.258s-0.102 0.229-0.102 0.353c0 0.124 0.035 0.246 0.102 0.353s0.162 0.196 0.277 0.258l15.799 8.441c0.114 0.061 0.242 0.093 0.373 0.093s0.26-0.032 0.373-0.093l15.799-8.441c0.086-0.046 0.161-0.107 0.222-0.18s0.105-0.157 0.131-0.246 0.033-0.182 0.020-0.274c-0.013-0.092-0.044-0.18-0.093-0.26-0.066-0.109-0.163-0.199-0.279-0.261z"></path>
<path fill="#8ebac7" style="fill: var(--color16, #8ebac7)" d="M32.725 8.534l-15.799-8.441c-0.114-0.061-0.242-0.093-0.373-0.093s-0.26 0.032-0.373 0.093l-15.799 8.441c-0.115 0.062-0.211 0.15-0.277 0.258s-0.102 0.229-0.102 0.353c0 0.124 0.035 0.246 0.102 0.353s0.162 0.196 0.277 0.258l15.799 8.441c0.114 0.061 0.242 0.093 0.373 0.093s0.26-0.032 0.373-0.093l15.799-8.441c0.115-0.062 0.211-0.15 0.277-0.258s0.102-0.229 0.102-0.353-0.035-0.246-0.102-0.353c-0.067-0.107-0.162-0.196-0.277-0.258z"></path>
</symbol>
<symbol id="icon-pinterest" viewBox="0 0 33 32">
<path fill="#fff" style="fill: var(--color4, #fff)" d="M33.453 3.713c-1.253 0.637-2.582 1.056-3.942 1.242 1.434-0.986 2.507-2.539 3.020-4.367-1.346 0.921-2.821 1.567-4.359 1.916-1.033-1.271-2.402-2.114-3.895-2.398s-3.025 0.007-4.359 0.828c-1.334 0.821-2.394 2.126-3.017 3.711s-0.772 3.363-0.425 5.057c-2.729-0.157-5.399-0.973-7.836-2.394s-4.587-3.416-6.311-5.854c-0.61 1.205-0.931 2.575-0.929 3.969 0 2.737 1.211 5.155 3.053 6.57-1.090-0.039-2.156-0.378-3.108-0.987v0.098c0 1.823 0.549 3.589 1.552 5s2.4 2.379 3.954 2.74c-1.012 0.315-2.072 0.362-3.102 0.136 0.438 1.569 1.292 2.941 2.441 3.924s2.538 1.528 3.971 1.559c-1.424 1.286-3.054 2.236-4.797 2.798s-3.566 0.721-5.363 0.471c3.138 2.32 6.79 3.552 10.52 3.548 12.626 0 19.53-12.029 19.53-22.46 0-0.34-0.008-0.683-0.021-1.019 1.344-1.117 2.504-2.501 3.425-4.086l-0.002-0.002z"></path>
</symbol>
<symbol id="icon-Privacy" viewBox="0 0 33 32">
<path fill="#3d6c7b" style="fill: var(--color17, #3d6c7b)" d="M6.897 8.334c1.904 0 3.448-1.777 3.448-3.968s-1.544-3.968-3.448-3.968c-1.904 0-3.448 1.777-3.448 3.968s1.544 3.968 3.448 3.968z"></path>
<path fill="#2a4b55" style="fill: var(--color14, #2a4b55)" d="M15.631 17.948c-1.644-0.667-2.644-2.095-3.701-3.608-1.447-2.071-3.093-4.419-6.412-4.419-1.28 0.002-2.507 0.588-3.412 1.629s-1.414 2.453-1.416 3.926v14.286c0 0.211 0.073 0.412 0.202 0.561s0.305 0.232 0.488 0.232h8.276c0.183 0 0.358-0.084 0.488-0.232s0.202-0.351 0.202-0.561v-12.637c1.114 1.721 2.629 3.045 4.369 3.817 0.344 0.133 0.719 0.105 1.045-0.077s0.576-0.506 0.697-0.899c0.121-0.393 0.102-0.826-0.053-1.203s-0.431-0.67-0.771-0.814z"></path>
<path fill="#7ed3dd" style="fill: var(--color18, #7ed3dd)" d="M17.472 17.948c1.644-0.667 2.643-2.095 3.701-3.608 1.45-2.071 3.093-4.419 6.412-4.419 1.28 0.002 2.507 0.588 3.412 1.629s1.414 2.453 1.416 3.926v14.286c0 0.211-0.073 0.412-0.202 0.561s-0.305 0.232-0.488 0.232h-8.276c-0.183 0-0.358-0.084-0.488-0.232s-0.202-0.351-0.202-0.561v-12.637c-1.114 1.721-2.629 3.045-4.369 3.817-0.342 0.14-0.718 0.119-1.047-0.059s-0.583-0.497-0.709-0.889c-0.125-0.392-0.112-0.825 0.038-1.205s0.424-0.677 0.763-0.826l0.037-0.015z"></path>
<path fill="#a0e6ee" style="fill: var(--color19, #a0e6ee)" d="M26.207 8.334c1.904 0 3.448-1.777 3.448-3.968s-1.544-3.968-3.448-3.968c-1.904 0-3.448 1.777-3.448 3.968s1.544 3.968 3.448 3.968z"></path>
</symbol>
<symbol id="icon-quotes" viewBox="0 0 44 32">
<path fill="#cecece" style="fill: var(--color20, #cecece)" d="M3.2 32h9.333l6.222-12.8v-19.2h-18.667v19.2h9.333l-6.222 12.8zM28.089 32h9.333l6.222-12.8v-19.2h-18.667v19.2h9.333l-6.222 12.8z"></path>
</symbol>
<symbol id="icon-Twitter" viewBox="0 0 32 32">
<path fill="#fff" style="fill: var(--color4, #fff)" d="M17.827 2.792c-3.19-0.439-6.432 0.291-9.126 2.056s-4.658 4.444-5.531 7.544c-0.872 3.1-0.594 6.411 0.785 9.321s3.763 5.224 6.714 6.513c-0.080-1.024-0.007-2.055 0.217-3.057 0.247-1.119 1.728-7.284 1.728-7.284-0.295-0.661-0.442-1.379-0.432-2.103 0-1.98 1.143-3.457 2.564-3.457 0.255-0.004 0.509 0.048 0.742 0.15s0.443 0.255 0.612 0.446c0.17 0.191 0.297 0.416 0.371 0.66s0.097 0.502 0.063 0.755c0 1.2-0.771 3.016-1.173 4.72-0.079 0.313-0.085 0.639-0.015 0.954s0.213 0.609 0.417 0.858c0.204 0.25 0.464 0.448 0.759 0.578s0.616 0.19 0.938 0.174c2.531 0 4.227-3.241 4.227-7.068 0-2.933-1.943-5.131-5.524-5.131-0.857-0.033-1.712 0.108-2.512 0.415s-1.53 0.774-2.145 1.371-1.102 1.314-1.431 2.106c-0.329 0.792-0.494 1.642-0.485 2.5-0.038 0.951 0.269 1.884 0.864 2.627 0.111 0.083 0.192 0.2 0.231 0.333s0.034 0.275-0.015 0.405c-0.061 0.245-0.216 0.831-0.277 1.045-0.013 0.073-0.042 0.142-0.087 0.201s-0.102 0.107-0.168 0.14c-0.066 0.033-0.139 0.050-0.213 0.049s-0.147-0.018-0.212-0.052c-1.845-0.739-2.715-2.769-2.715-5.088 0-3.796 3.179-8.34 9.539-8.34 5.061 0 8.427 3.703 8.427 7.663 0 5.212-2.903 9.131-7.192 9.131-0.641 0.020-1.277-0.121-1.849-0.411s-1.061-0.72-1.423-1.25c0 0-0.771 3.088-0.923 3.672-0.31 1.009-0.768 1.966-1.359 2.841 1.231 0.373 2.509 0.56 3.795 0.555 1.751 0.001 3.486-0.343 5.104-1.012s3.089-1.652 4.327-2.891c1.238-1.239 2.22-2.71 2.888-4.328s1.012-3.353 1.009-5.105c-0.002-3.22-1.168-6.331-3.285-8.758s-5.039-4.006-8.229-4.446l-0.003-0.001z"></path>
</symbol>
</defs>
</svg>
