<svg width="31" height="29" viewBox="0 0 31 29" fill="none" xmlns="http://www.w3.org/2000/svg">
<path d="M7.55826 26.1738L0.625 17.7266L2.58152 15.389L7.79891 19.285L22.7989 0.584351L24.7554 2.14274L9.52717 26.0273C9.31758 26.3555 9.0076 26.5708 8.66525 26.6262C8.3229 26.6816 7.97615 26.5724 7.70109 26.3227C7.65061 26.2771 7.60288 26.2274 7.55826 26.1738Z" fill="#78D478"/>
<path d="M29.9728 7.59708H26.712C26.539 7.59708 26.3731 7.51499 26.2508 7.36886C26.1285 7.22273 26.0598 7.02454 26.0598 6.81789C26.0598 6.61123 26.1285 6.41304 26.2508 6.26692C26.3731 6.12079 26.539 6.0387 26.712 6.0387H29.9728C30.1458 6.0387 30.3117 6.12079 30.434 6.26692C30.5563 6.41304 30.625 6.61123 30.625 6.81789C30.625 7.02454 30.5563 7.22273 30.434 7.36886C30.3117 7.51499 30.1458 7.59708 29.9728 7.59708Z" fill="#AEAEAE"/>
<path d="M29.9728 14.6098H22.1467C21.9738 14.6098 21.8079 14.5277 21.6856 14.3816C21.5633 14.2354 21.4946 14.0372 21.4946 13.8306C21.4946 13.6239 21.5633 13.4257 21.6856 13.2796C21.8079 13.1335 21.9738 13.0514 22.1467 13.0514H29.9728C30.1458 13.0514 30.3117 13.1335 30.434 13.2796C30.5563 13.4257 30.625 13.6239 30.625 13.8306C30.625 14.0372 30.5563 14.2354 30.434 14.3816C30.3117 14.5277 30.1458 14.6098 29.9728 14.6098Z" fill="#AEAEAE"/>
<path d="M29.9728 21.6225H17.5815C17.4086 21.6225 17.2427 21.5404 17.1204 21.3943C16.9981 21.2481 16.9294 21.0499 16.9294 20.8433C16.9294 20.6366 16.9981 20.4384 17.1204 20.2923C17.2427 20.1462 17.4086 20.0641 17.5815 20.0641H29.9728C30.1458 20.0641 30.3117 20.1462 30.434 20.2923C30.5563 20.4384 30.625 20.6366 30.625 20.8433C30.625 21.0499 30.5563 21.2481 30.434 21.3943C30.3117 21.5404 30.1458 21.6225 29.9728 21.6225Z" fill="#AEAEAE"/>
<path d="M29.9728 28.6353H13.0163C12.8433 28.6353 12.6775 28.5532 12.5552 28.4071C12.4328 28.2609 12.3641 28.0628 12.3641 27.8561C12.3641 27.6494 12.4328 27.4513 12.5552 27.3051C12.6775 27.159 12.8433 27.0769 13.0163 27.0769H29.9728C30.1458 27.0769 30.3117 27.159 30.434 27.3051C30.5563 27.4513 30.625 27.6494 30.625 27.8561C30.625 28.0628 30.5563 28.2609 30.434 28.4071C30.3117 28.5532 30.1458 28.6353 29.9728 28.6353Z" fill="#AEAEAE"/>
</svg>
