<svg width="15" height="21" viewBox="0 0 15 21" fill="none" xmlns="http://www.w3.org/2000/svg">
<path d="M7.50001 0.083252C3.46876 0.083252 0.208344 3.34367 0.208344 7.37492C0.208344 12.8437 7.50001 20.9166 7.50001 20.9166C7.50001 20.9166 14.7917 12.8437 14.7917 7.37492C14.7917 3.34367 11.5313 0.083252 7.50001 0.083252ZM2.29168 7.37492C2.29168 4.49992 4.62501 2.16659 7.50001 2.16659C10.375 2.16659 12.7083 4.49992 12.7083 7.37492C12.7083 10.3749 9.70834 14.8645 7.50001 17.6666C5.33334 14.8853 2.29168 10.3437 2.29168 7.37492Z" fill="#1A6AE2"/>
<path d="M7.50001 9.97909C8.19068 9.97909 8.85306 9.70472 9.34143 9.21634C9.82981 8.72797 10.1042 8.06559 10.1042 7.37492C10.1042 6.68425 9.82981 6.02187 9.34143 5.53349C8.85306 5.04512 8.19068 4.77075 7.50001 4.77075C6.80934 4.77075 6.14696 5.04512 5.65859 5.53349C5.17021 6.02187 4.89584 6.68425 4.89584 7.37492C4.89584 8.06559 5.17021 8.72797 5.65859 9.21634C6.14696 9.70472 6.80934 9.97909 7.50001 9.97909Z" fill="#1A6AE2"/>
</svg>
