<svg width="23" height="23" viewBox="0 0 23 23" fill="none" xmlns="http://www.w3.org/2000/svg">
<g clip-path="url(#clip0_40_115)">
<path d="M17.571 17.5749H15.0171V13.5719C15.0171 12.6174 14.9979 11.3888 13.685 11.3888C12.3539 11.3888 12.1507 12.4277 12.1507 13.502V17.5749H9.59579V9.34375H12.0491V10.465H12.0827C12.4257 9.81908 13.2595 9.13579 14.5053 9.13579C17.0928 9.13579 17.572 10.8397 17.572 13.0563V17.5749H17.571ZM6.71121 8.21771C6.51624 8.21796 6.32314 8.17973 6.14298 8.10521C5.96281 8.03068 5.79913 7.92133 5.66131 7.78343C5.52349 7.64552 5.41425 7.48176 5.33984 7.30155C5.26544 7.12134 5.22733 6.92822 5.22771 6.73325C5.2279 6.43984 5.31509 6.15308 5.47826 5.90922C5.64142 5.66537 5.87324 5.47537 6.14438 5.36327C6.41553 5.25116 6.71383 5.22197 7.00156 5.2794C7.2893 5.33683 7.55354 5.47829 7.76088 5.68589C7.96821 5.8935 8.10933 6.15792 8.16639 6.44573C8.22344 6.73354 8.19387 7.0318 8.08142 7.3028C7.96896 7.57381 7.77867 7.80537 7.5346 7.96823C7.29053 8.13108 7.00366 8.2179 6.71025 8.21771H6.71121ZM7.99154 17.5749H5.42992V9.34375H7.9925V17.5749H7.99154ZM18.8504 2.875H4.14863C3.44329 2.875 2.875 3.43083 2.875 4.11796V18.882C2.875 19.5692 3.44425 20.125 4.14767 20.125H18.8466C19.55 20.125 20.125 19.5692 20.125 18.882V4.11796C20.125 3.43083 19.55 2.875 18.8466 2.875H18.8495H18.8504Z" fill="white"/>
</g>
<defs>
<clipPath id="clip0_40_115">
<rect width="23" height="23" fill="white"/>
</clipPath>
</defs>
</svg>
