<svg width="30" height="29" viewBox="0 0 30 29" fill="none" xmlns="http://www.w3.org/2000/svg">
<path d="M29.6568 19.2079L15.3387 11.5581C15.2357 11.5031 15.1192 11.4741 15.0005 11.4741C14.8819 11.4741 14.7654 11.5031 14.6624 11.5581L0.344333 19.2079C0.26624 19.2495 0.197712 19.3051 0.142692 19.3716C0.0876721 19.438 0.0472451 19.514 0.0237368 19.5951C0.000228529 19.6762 -0.00589724 19.7608 0.00571177 19.8442C0.0173208 19.9275 0.0464356 20.0079 0.0913814 20.0806C0.151306 20.1794 0.238718 20.2611 0.344333 20.3171L14.6624 27.967C14.7654 28.022 14.8819 28.0509 15.0005 28.0509C15.1192 28.0509 15.2357 28.022 15.3387 27.967L29.6568 20.3171C29.761 20.2614 29.8477 20.1808 29.908 20.0836C29.9683 19.9865 30 19.8761 30 19.7638C30 19.6515 29.9683 19.5411 29.908 19.444C29.8477 19.3468 29.761 19.2662 29.6568 19.2105V19.2079Z" fill="#2A4B55"/>
<path d="M29.6567 13.4712L15.3387 5.82137C15.2357 5.76636 15.1191 5.73743 15.0005 5.73743C14.8819 5.73743 14.7653 5.76636 14.6623 5.82137L0.344316 13.4712C0.240034 13.527 0.153367 13.6075 0.09309 13.7047C0.0328135 13.8019 0.00106812 13.9122 0.00106812 14.0246C0.00106812 14.1369 0.0328135 14.2472 0.09309 14.3444C0.153367 14.4416 0.240034 14.5221 0.344316 14.5779L14.6623 22.2277C14.7653 22.2828 14.8819 22.3117 15.0005 22.3117C15.1191 22.3117 15.2357 22.2828 15.3387 22.2277L29.6567 14.5779C29.7345 14.5363 29.8027 14.4808 29.8575 14.4145C29.9122 14.3483 29.9525 14.2726 29.976 14.1918C29.9995 14.111 30.0057 14.0267 29.9944 13.9436C29.983 13.8605 29.9542 13.7804 29.9097 13.7077C29.8498 13.609 29.7624 13.5272 29.6567 13.4712Z" fill="#4D8B9D"/>
<path d="M29.6567 7.73379L15.3387 0.0839427C15.2357 0.0289336 15.1191 0 15.0005 0C14.8819 0 14.7653 0.0289336 14.6623 0.0839427L0.344308 7.73379C0.240026 7.78957 0.153359 7.87012 0.0930824 7.96729C0.0328058 8.06446 0.00106049 8.1748 0.00106049 8.28713C0.00106049 8.39946 0.0328058 8.5098 0.0930824 8.60697C0.153359 8.70413 0.240026 8.78469 0.344308 8.84047L14.6623 16.4903C14.7653 16.5453 14.8819 16.5743 15.0005 16.5743C15.1191 16.5743 15.2357 16.5453 15.3387 16.4903L29.6567 8.84047C29.761 8.78469 29.8477 8.70413 29.908 8.60697C29.9682 8.5098 30 8.39946 30 8.28713C30 8.1748 29.9682 8.06446 29.908 7.96729C29.8477 7.87012 29.761 7.78957 29.6567 7.73379Z" fill="#8EBAC7"/>
</svg>
