<svg width="23" height="23" viewBox="0 0 23 23" fill="none" xmlns="http://www.w3.org/2000/svg">
<g clip-path="url(#clip0_40_112)">
<path d="M12.8129 2.00669C10.5199 1.69126 8.19018 2.21614 6.25395 3.4844C4.31771 4.75267 2.90574 6.67866 2.27876 8.90675C1.65177 11.1348 1.85211 13.5146 2.8428 15.6065C3.83348 17.6984 5.54759 19.3612 7.66861 20.2879C7.61126 19.5517 7.6639 18.8111 7.82482 18.0904C8.00211 17.2864 9.06682 12.855 9.06682 12.855C8.85481 12.3798 8.74885 11.8641 8.75632 11.3437C8.75632 9.92061 9.57761 8.85878 10.5992 8.85878C10.7827 8.8561 10.9647 8.89298 11.1327 8.9669C11.3007 9.04083 11.4508 9.15006 11.5728 9.28717C11.6948 9.42429 11.7859 9.58607 11.8398 9.76152C11.8937 9.93696 11.9092 10.122 11.8853 10.3039C11.8853 11.1664 11.3314 12.4717 11.0419 13.6964C10.9848 13.9211 10.9811 14.156 11.0314 14.3822C11.0816 14.6085 11.1843 14.8198 11.3311 14.9991C11.478 15.1785 11.6649 15.3208 11.8769 15.4146C12.0888 15.5084 12.3198 15.5511 12.5513 15.5393C14.3702 15.5393 15.5892 13.2096 15.5892 10.4592C15.5892 8.35086 14.1929 6.77152 11.6189 6.77152C11.003 6.74759 10.3887 6.84908 9.8133 7.06981C9.23787 7.29054 8.7133 7.62592 8.27145 8.05558C7.8296 8.48525 7.47968 9.00023 7.24294 9.56926C7.0062 10.1383 6.88758 10.7495 6.89428 11.3658C6.86684 12.0494 7.08739 12.7199 7.51528 13.2537C7.59524 13.3134 7.65362 13.3974 7.68162 13.4932C7.70963 13.589 7.70573 13.6912 7.67053 13.7846C7.62645 13.9609 7.51528 14.3816 7.4712 14.5359C7.46203 14.5883 7.4407 14.6377 7.40893 14.6803C7.37716 14.7229 7.33583 14.7574 7.28828 14.7811C7.24073 14.8047 7.18828 14.8169 7.13516 14.8166C7.08204 14.8163 7.02973 14.8036 6.98245 14.7794C5.65611 14.2484 5.03128 12.7889 5.03128 11.1224C5.03128 8.39398 7.31595 5.12798 11.8872 5.12798C15.525 5.12798 17.9439 7.78927 17.9439 10.6355C17.9439 14.3816 15.8576 17.1982 12.7746 17.1982C12.3138 17.2129 11.8568 17.1112 11.4457 16.9025C11.0347 16.6938 10.6829 16.3848 10.4229 16.0041C10.4229 16.0041 9.86895 18.2236 9.7597 18.6434C9.53668 19.3685 9.20761 20.0567 8.78315 20.6856C9.6677 20.9539 10.5867 21.0881 11.5106 21.0842C12.7694 21.0852 14.0161 20.8379 15.1792 20.3565C16.3424 19.875 17.3991 19.1688 18.2889 18.2783C19.1788 17.3879 19.8842 16.3307 20.3649 15.1672C20.8455 14.0037 21.092 12.7569 21.0901 11.498C21.0889 9.18365 20.2504 6.94785 18.7293 5.20348C17.2083 3.45911 15.1075 2.32396 12.8149 2.00765L12.8129 2.00669Z" fill="white"/>
</g>
<defs>
<clipPath id="clip0_40_112">
<rect width="23" height="23" fill="white"/>
</clipPath>
</defs>
</svg>
